<svg width="1193" height="2096" viewBox="0 0 1193 2096" fill="none" xmlns="http://www.w3.org/2000/svg">
<rect x="341.37" y="2062.51" width="494.612" height="494.612" rx="9.42119" transform="rotate(-90 341.37 2062.51)" fill="white" stroke="black" stroke-width="18.8424"/>
<mask id="path-2-inside-1_2232_11" fill="white">
<path d="M548.635 1567.9V1525.5H624.004V1567.9H548.635Z"/>
</mask>
<path d="M548.635 1567.9V1525.5H624.004V1567.9H548.635Z" fill="white"/>
<path d="M548.635 1567.9H534.503V1577.32H548.635V1567.9ZM548.635 1525.5V1516.08H534.503V1525.5H548.635ZM624.004 1525.5H638.136V1516.08H624.004V1525.5ZM624.004 1567.9V1577.32H638.136V1567.9H624.004ZM548.635 1567.9H562.767V1525.5H548.635H534.503V1567.9H548.635ZM548.635 1525.5V1534.92H624.004V1525.5V1516.08H548.635V1525.5ZM624.004 1525.5H609.873V1567.9H624.004H638.136V1525.5H624.004ZM624.004 1567.9V1558.47H548.635V1567.9V1577.32H624.004V1567.9Z" fill="black" mask="url(#path-2-inside-1_2232_11)"/>
<mask id="path-4-inside-2_2232_11" fill="white">
<rect x="503.445" y="1538.71" width="131.004" height="163.755" rx="4.71059" transform="rotate(-90 503.445 1538.71)"/>
</mask>
<rect x="503.445" y="1538.71" width="131.004" height="163.755" rx="4.71059" transform="rotate(-90 503.445 1538.71)" fill="white" stroke="black" stroke-width="23.553" mask="url(#path-4-inside-2_2232_11)"/>
<line x1="525.653" y1="1530.53" x2="525.653" y2="1407.71" stroke="black" stroke-width="4.71059"/>
<line x1="553.917" y1="1530.53" x2="553.917" y2="1407.71" stroke="black" stroke-width="4.71059"/>
<line x1="582.181" y1="1530.53" x2="582.181" y2="1407.71" stroke="black" stroke-width="4.71059"/>
<line x1="610.444" y1="1530.53" x2="610.444" y2="1407.71" stroke="black" stroke-width="4.71059"/>
<line x1="638.708" y1="1530.53" x2="638.708" y2="1407.71" stroke="black" stroke-width="4.71059"/>
<line x1="539.785" y1="1530.53" x2="539.785" y2="1407.71" stroke="black" stroke-width="4.71059"/>
<line x1="568.049" y1="1530.53" x2="568.049" y2="1407.71" stroke="black" stroke-width="4.71059"/>
<line x1="596.312" y1="1530.53" x2="596.312" y2="1407.71" stroke="black" stroke-width="4.71059"/>
<line x1="624.576" y1="1530.53" x2="624.576" y2="1407.71" stroke="black" stroke-width="4.71059"/>
<line x1="652.84" y1="1530.53" x2="652.84" y2="1407.71" stroke="black" stroke-width="4.71059"/>
<line x1="336.659" y1="1994.21" x2="831.271" y2="1994.21" stroke="black" stroke-width="14.1318"/>
<line x1="336.659" y1="1673.88" x2="831.271" y2="1673.88" stroke="black" stroke-width="14.1318"/>
<circle cx="379.054" cy="2024.82" r="9.42118" transform="rotate(-90 379.054 2024.82)" fill="white" stroke="black" stroke-width="9.42119"/>
<circle cx="586.32" cy="2024.82" r="9.42118" transform="rotate(-90 586.32 2024.82)" fill="white" stroke="black" stroke-width="9.42119"/>
<circle cx="798.297" cy="2024.82" r="9.42118" transform="rotate(-90 798.297 2024.82)" fill="white" stroke="black" stroke-width="9.42119"/>
<circle cx="364.922" cy="1591.45" r="5.88824" transform="rotate(-90 364.922 1591.45)" fill="white" stroke="black" stroke-width="7.06589"/>
<circle cx="812.428" cy="1591.45" r="5.88824" transform="rotate(-90 812.428 1591.45)" fill="white" stroke="black" stroke-width="7.06589"/>
<path d="M284.843 1991.85V1803.43C284.843 1800.82 286.951 1798.72 289.552 1798.72H336.659V1996.56H289.552C286.951 1996.56 284.843 1994.45 284.843 1991.85Z" fill="white" stroke="black" stroke-width="9.42119"/>
<rect x="270.711" y="1977.72" width="164.871" height="14.1318" transform="rotate(-90 270.711 1977.72)" fill="white" stroke="black" stroke-width="9.42119"/>
<path d="M355.501 1671.53L395.541 1567.89H435.581" stroke="black" stroke-width="14.1318"/>
<path d="M515.661 1671.53L555.702 1567.89H595.742" stroke="black" stroke-width="14.1318"/>
<path d="M680.532 1671.53L720.572 1567.89H760.612" stroke="black" stroke-width="14.1318"/>
<path d="M473.266 1671.53L433.226 1567.89H393.186" stroke="black" stroke-width="14.1318"/>
<path d="M633.426 1671.53L593.386 1567.89H553.346" stroke="black" stroke-width="14.1318"/>
<path d="M798.297 1671.53L758.257 1567.89H718.217" stroke="black" stroke-width="14.1318"/>
<circle cx="313.106" cy="1897.64" r="11.7765" transform="rotate(-90 313.106 1897.64)" fill="white" stroke="black" stroke-width="4.71059"/>
<circle cx="313.106" cy="1954.17" r="11.7765" transform="rotate(-90 313.106 1954.17)" fill="white" stroke="black" stroke-width="4.71059"/>
<circle cx="313.106" cy="1954.16" r="4.71059" transform="rotate(-90 313.106 1954.16)" fill="black"/>
<circle cx="313.106" cy="1897.64" r="4.71059" transform="rotate(-90 313.106 1897.64)" fill="black"/>
<circle cx="313.106" cy="1841.11" r="11.7765" transform="rotate(-90 313.106 1841.11)" fill="white" stroke="black" stroke-width="4.71059"/>
<circle cx="313.106" cy="1841.11" r="4.71059" transform="rotate(-90 313.106 1841.11)" fill="black"/>
<mask id="path-36-inside-3_2232_11" fill="white">
<path d="M393.186 2095.48V2053.09H779.454V2095.48H393.186Z"/>
</mask>
<path d="M393.186 2095.48V2053.09H779.454V2095.48H393.186Z" fill="white"/>
<path d="M393.186 2095.48H379.054V2109.61H393.186V2095.48ZM779.454 2095.48V2109.61H793.586V2095.48H779.454ZM393.186 2095.48H407.318V2053.09H393.186H379.054V2095.48H393.186ZM779.454 2053.09H765.323V2095.48H779.454H793.586V2053.09H779.454ZM779.454 2095.48V2081.35H393.186V2095.48V2109.61H779.454V2095.48Z" fill="black" mask="url(#path-36-inside-3_2232_11)"/>
<rect x="560.76" y="1407.71" width="4.71059" height="47.1059" transform="rotate(-90 560.76 1407.71)" fill="black"/>
<circle cx="588.531" cy="1836.48" r="130.5" transform="rotate(-90 588.531 1836.48)" fill="white" stroke="black" stroke-width="19"/>
<path d="M626.897 1805.04C625.654 1801.02 623.939 1797.41 621.751 1794.23C619.614 1791 617.028 1788.24 613.996 1785.95C611.013 1783.67 607.582 1781.95 603.704 1780.81C599.827 1779.61 595.601 1779.02 591.027 1779.02C582.824 1779.02 575.516 1781.08 569.102 1785.21C562.689 1789.33 557.643 1795.4 553.964 1803.4C550.334 1811.36 548.52 1821.05 548.52 1832.49C548.52 1844.02 550.334 1853.79 553.964 1861.79C557.593 1869.8 562.639 1875.89 569.102 1880.07C575.565 1884.19 583.072 1886.25 591.624 1886.25C599.379 1886.25 606.091 1884.76 611.758 1881.78C617.476 1878.8 621.876 1874.57 624.958 1869.1C628.04 1863.58 629.582 1857.12 629.582 1849.71L635.846 1850.68H594.383V1829.06H656.354V1847.4C656.354 1860.48 653.57 1871.79 648.001 1881.33C642.433 1890.88 634.777 1898.24 625.033 1903.41C615.288 1908.53 604.102 1911.09 591.474 1911.09C577.405 1911.09 565.05 1907.93 554.411 1901.62C543.822 1895.25 535.544 1886.23 529.578 1874.55C523.662 1862.81 520.704 1848.89 520.704 1832.79C520.704 1820.46 522.444 1809.44 525.924 1799.75C529.454 1790.05 534.376 1781.83 540.69 1775.07C547.003 1768.25 554.411 1763.08 562.913 1759.55C571.414 1755.97 580.661 1754.18 590.654 1754.18C599.106 1754.18 606.986 1755.43 614.294 1757.91C621.602 1760.35 628.09 1763.83 633.758 1768.35C639.475 1772.88 644.173 1778.25 647.852 1784.46C651.531 1790.68 653.942 1797.54 655.086 1805.04H626.897Z" fill="black"/>
<rect x="167.604" y="293.307" width="195.538" height="126.973" fill="white" stroke="black" stroke-width="17.7762"/>
<rect x="789.77" y="1406.86" width="161.255" height="385.997" transform="rotate(90 789.77 1406.86)" fill="white" stroke="black" stroke-width="17.7762"/>
<rect x="363.142" y="1337.02" width="161.255" height="215.853" transform="rotate(90 363.142 1337.02)" fill="white" stroke="black" stroke-width="17.7762"/>
<rect x="363.142" y="559.949" width="775.803" height="121.894" transform="rotate(90 363.142 559.949)" fill="white" stroke="black" stroke-width="17.7762"/>
<mask id="path-45-inside-4_2232_11" fill="white">
<path d="M253.945 501.542V1344.64H168.874V501.542H253.945Z"/>
</mask>
<path d="M253.945 501.542V1344.64H168.874V501.542H253.945Z" fill="white"/>
<path d="M253.945 501.542H271.721V483.766H253.945V501.542ZM253.945 1344.64V1362.42H271.721V1344.64H253.945ZM253.945 501.542H236.169V1344.64H253.945H271.721V501.542H253.945ZM253.945 1344.64V1326.86H168.874V1344.64V1362.42H253.945V1344.64ZM168.874 501.542V519.318H253.945V501.542V483.766H168.874V501.542Z" fill="black" mask="url(#path-45-inside-4_2232_11)"/>
<rect x="789.135" y="208.87" width="1194.81" height="425.358" transform="rotate(90 789.135 208.87)" fill="white" stroke="black" stroke-width="19.0459"/>
<circle cx="519.318" cy="318.701" r="48.2496" transform="rotate(90 519.318 318.701)" fill="white" stroke="black" stroke-width="17.7762"/>
<circle cx="528.206" cy="540.903" r="48.2496" transform="rotate(90 528.206 540.903)" fill="white" stroke="black" stroke-width="17.7762"/>
<circle cx="528.206" cy="763.105" r="48.2496" transform="rotate(90 528.206 763.105)" fill="white" stroke="black" stroke-width="17.7762"/>
<circle cx="528.206" cy="985.308" r="48.2496" transform="rotate(90 528.206 985.308)" fill="white" stroke="black" stroke-width="17.7762"/>
<circle cx="528.206" cy="1207.51" r="48.2496" transform="rotate(90 528.206 1207.51)" fill="white" stroke="black" stroke-width="17.7762"/>
<circle cx="519.318" cy="398.694" r="48.2496" transform="rotate(90 519.318 398.694)" fill="white" stroke="black" stroke-width="17.7762"/>
<circle cx="528.206" cy="620.896" r="48.2496" transform="rotate(90 528.206 620.896)" fill="white" stroke="black" stroke-width="17.7762"/>
<circle cx="528.206" cy="843.098" r="48.2496" transform="rotate(90 528.206 843.098)" fill="white" stroke="black" stroke-width="17.7762"/>
<circle cx="528.206" cy="1065.3" r="48.2496" transform="rotate(90 528.206 1065.3)" fill="white" stroke="black" stroke-width="17.7762"/>
<circle cx="528.206" cy="1287.5" r="48.2496" transform="rotate(90 528.206 1287.5)" fill="white" stroke="black" stroke-width="17.7762"/>
<path d="M492.654 279.34L358.063 300.925" stroke="black" stroke-width="16.5064"/>
<path d="M501.542 501.542L366.951 523.127" stroke="black" stroke-width="16.5064"/>
<path d="M501.542 723.744L366.951 745.329" stroke="black" stroke-width="16.5064"/>
<path d="M501.542 945.946L366.951 967.531" stroke="black" stroke-width="16.5064"/>
<path d="M501.542 1168.15L366.951 1189.73" stroke="black" stroke-width="16.5064"/>
<path d="M358.063 417.74L492.654 439.325" stroke="black" stroke-width="16.5064"/>
<path d="M366.951 639.942L501.542 661.527" stroke="black" stroke-width="16.5064"/>
<path d="M366.951 862.144L501.542 883.729" stroke="black" stroke-width="16.5064"/>
<path d="M366.951 1084.35L501.542 1105.93" stroke="black" stroke-width="16.5064"/>
<path d="M366.951 1306.55L501.542 1328.13" stroke="black" stroke-width="16.5064"/>
<ellipse cx="486.305" cy="358.698" rx="60.9469" ry="70.4698" fill="white"/>
<ellipse cx="495.193" cy="580.9" rx="60.9469" ry="70.4698" fill="white"/>
<ellipse cx="495.193" cy="803.102" rx="60.9469" ry="70.4698" fill="white"/>
<ellipse cx="495.193" cy="1025.3" rx="60.9469" ry="70.4698" fill="white"/>
<ellipse cx="495.193" cy="1247.51" rx="60.9469" ry="70.4698" fill="white"/>
<line x1="486.305" y1="279.34" x2="486.305" y2="434.246" stroke="black" stroke-width="20.3156"/>
<line x1="495.193" y1="501.542" x2="495.193" y2="656.449" stroke="black" stroke-width="20.3156"/>
<line x1="495.193" y1="723.744" x2="495.193" y2="878.651" stroke="black" stroke-width="20.3156"/>
<line x1="495.193" y1="945.946" x2="495.193" y2="1100.85" stroke="black" stroke-width="20.3156"/>
<line x1="495.193" y1="1168.15" x2="495.193" y2="1323.05" stroke="black" stroke-width="20.3156"/>
<path d="M445.039 333.938H519.318V383.458H445.039C431.365 383.458 420.28 372.372 420.28 358.698C420.28 345.024 431.365 333.938 445.039 333.938Z" fill="white" stroke="black" stroke-width="10.1578"/>
<path d="M453.927 556.14H528.206V605.66H453.927C440.253 605.66 429.168 594.574 429.168 580.9C429.168 567.226 440.253 556.14 453.927 556.14Z" fill="white" stroke="black" stroke-width="10.1578"/>
<path d="M453.927 778.342H528.206V827.862H453.927C440.253 827.862 429.168 816.776 429.168 803.102C429.168 789.428 440.253 778.342 453.927 778.342Z" fill="white" stroke="black" stroke-width="10.1578"/>
<path d="M453.927 1000.54H528.206V1050.06H453.927C440.253 1050.06 429.168 1038.98 429.168 1025.3C429.168 1011.63 440.253 1000.54 453.927 1000.54Z" fill="white" stroke="black" stroke-width="10.1578"/>
<path d="M453.927 1222.75H528.206V1272.27H453.927C440.253 1272.27 429.168 1261.18 429.168 1247.51C429.168 1233.83 440.253 1222.75 453.927 1222.75Z" fill="white" stroke="black" stroke-width="10.1578"/>
<path d="M445.674 333.303C460.138 333.304 471.703 344.761 471.703 358.698C471.703 372.635 460.138 384.092 445.674 384.093C431.21 384.093 419.645 372.635 419.645 358.698C419.645 344.761 431.21 333.303 445.674 333.303Z" fill="white" stroke="black" stroke-width="8.88808"/>
<path d="M454.562 555.506C469.026 555.506 480.592 566.963 480.592 580.9C480.591 594.837 469.026 606.295 454.562 606.295C440.098 606.295 428.533 594.837 428.533 580.9C428.533 566.963 440.098 555.506 454.562 555.506Z" fill="white" stroke="black" stroke-width="8.88808"/>
<path d="M454.562 777.708C469.026 777.708 480.592 789.165 480.592 803.102C480.591 817.039 469.026 828.496 454.562 828.497C440.098 828.497 428.533 817.039 428.533 803.102C428.533 789.165 440.098 777.708 454.562 777.708Z" fill="white" stroke="black" stroke-width="8.88808"/>
<path d="M454.562 999.91C469.026 999.91 480.592 1011.37 480.592 1025.3C480.591 1039.24 469.026 1050.7 454.562 1050.7C440.098 1050.7 428.533 1039.24 428.533 1025.3C428.533 1011.37 440.098 999.91 454.562 999.91Z" fill="white" stroke="black" stroke-width="8.88808"/>
<path d="M454.562 1222.11C469.026 1222.11 480.592 1233.57 480.592 1247.51C480.591 1261.44 469.026 1272.9 454.562 1272.9C440.098 1272.9 428.533 1261.44 428.533 1247.51C428.533 1233.57 440.098 1222.11 454.562 1222.11Z" fill="white" stroke="black" stroke-width="8.88808"/>
<circle cx="634.863" cy="356.793" r="27.934" fill="white" stroke="black" stroke-width="20.3156"/>
<circle cx="632.324" cy="578.995" r="27.934" fill="white" stroke="black" stroke-width="20.3156"/>
<circle cx="634.863" cy="803.737" r="27.934" fill="white" stroke="black" stroke-width="20.3156"/>
<circle cx="634.863" cy="1023.4" r="27.934" fill="white" stroke="black" stroke-width="20.3156"/>
<circle cx="634.863" cy="1248.14" r="27.934" fill="white" stroke="black" stroke-width="20.3156"/>
<circle cx="158.716" cy="359.332" r="88.8808" fill="white" stroke="black" stroke-width="12.6973"/>
<rect x="701.524" y="229.186" width="17.7762" height="1171.96" fill="white" stroke="black" stroke-width="6.34863"/>
<path d="M634.228 389.806V432.977L702.793 486.305" stroke="black" stroke-width="7.61836"/>
<path d="M634.228 833.575V876.746L702.793 930.074" stroke="black" stroke-width="7.61836"/>
<path d="M634.228 613.913V657.083L702.793 710.412" stroke="black" stroke-width="7.61836"/>
<path d="M634.228 1057.68V1100.85L702.793 1154.18" stroke="black" stroke-width="7.61836"/>
<path d="M634.228 1277.98V1321.15L702.793 1374.48" stroke="black" stroke-width="7.61836"/>
<path d="M619.626 389.171V438.69L700.889 503.447" stroke="black" stroke-width="7.61836"/>
<path d="M619.626 832.94V882.46L700.889 947.216" stroke="black" stroke-width="7.61836"/>
<path d="M619.626 613.278V662.797L700.889 727.553" stroke="black" stroke-width="7.61836"/>
<path d="M619.626 1057.05V1106.57L700.889 1171.32" stroke="black" stroke-width="7.61836"/>
<path d="M619.626 1277.34V1326.86L700.889 1391.62" stroke="black" stroke-width="7.61836"/>
<rect x="673.59" y="351.079" width="26.6643" height="11.4275" fill="white" stroke="black" stroke-width="6.34863"/>
<rect x="672.32" y="800.562" width="26.6643" height="11.4275" fill="white" stroke="black" stroke-width="6.34863"/>
<rect x="672.32" y="575.821" width="26.6643" height="11.4275" fill="white" stroke="black" stroke-width="6.34863"/>
<rect x="672.32" y="1020.23" width="26.6643" height="11.4275" fill="white" stroke="black" stroke-width="6.34863"/>
<rect x="672.32" y="1242.43" width="26.6643" height="11.4275" fill="white" stroke="black" stroke-width="6.34863"/>
<rect x="172.683" y="8.88808" width="761.836" height="206.965" fill="white" stroke="black" stroke-width="17.7762"/>
<rect x="937.058" y="30.4735" width="41.901" height="159.986" fill="white" stroke="black" stroke-width="17.7762"/>
<rect x="166.334" y="194.268" width="41.901" height="159.986" transform="rotate(180 166.334 194.268)" fill="white" stroke="black" stroke-width="17.7762"/>
<rect x="978.959" y="8.88808" width="38.0918" height="206.965" fill="white" stroke="black" stroke-width="17.7762"/>
<rect x="822.783" y="217.123" width="85.0717" height="142.209" fill="white" stroke="black" stroke-width="17.7762"/>
<rect x="820.243" y="1442.41" width="85.0717" height="204.426" transform="rotate(90 820.243 1442.41)" fill="white" stroke="black" stroke-width="17.7762"/>
<mask id="path-116-inside-5_2232_11" fill="white">
<path d="M813.895 368.221H916.742V1433.52H813.895V368.221Z"/>
</mask>
<path d="M813.895 368.221H916.742V1433.52H813.895V368.221Z" fill="white"/>
<path d="M813.895 368.221V350.445H796.118V368.221H813.895ZM916.742 368.221H934.519V350.445H916.742V368.221ZM813.895 368.221V385.997H916.742V368.221V350.445H813.895V368.221ZM916.742 368.221H898.966V1433.52H916.742H934.519V368.221H916.742ZM813.895 1433.52H831.671V368.221H813.895H796.118V1433.52H813.895Z" fill="black" mask="url(#path-116-inside-5_2232_11)"/>
<rect x="810.085" y="355.523" width="111.736" height="19.0459" rx="9.52295" fill="white" stroke="black" stroke-width="10.1578"/>
<rect x="124.433" y="215.853" width="38.0918" height="206.965" transform="rotate(180 124.433 215.853)" fill="white" stroke="black" stroke-width="17.7762"/>
<mask id="path-120-inside-6_2232_11" fill="white">
<path d="M916.742 1432.25C916.742 1445.92 914.082 1459.46 908.913 1472.1C903.745 1484.73 896.169 1496.21 886.619 1505.87C877.069 1515.54 865.731 1523.21 853.253 1528.44C840.775 1533.68 827.401 1536.37 813.894 1536.37L813.894 1432.25H916.742Z"/>
</mask>
<path d="M916.742 1432.25C916.742 1445.92 914.082 1459.46 908.913 1472.1C903.745 1484.73 896.169 1496.21 886.619 1505.87C877.069 1515.54 865.731 1523.21 853.253 1528.44C840.775 1533.68 827.401 1536.37 813.894 1536.37L813.894 1432.25H916.742Z" fill="white" stroke="black" stroke-width="30.4734" mask="url(#path-120-inside-6_2232_11)"/>
<circle cx="158.716" cy="359.333" r="50.789" fill="white" stroke="black" stroke-width="12.6973"/>
<path d="M93.5793 355.887V362.777L87.6106 366.223L81.6438 362.778V355.887L87.6106 352.441L93.5793 355.887Z" fill="white" stroke="black" stroke-width="5.6582"/>
<path d="M164.684 287.321V294.212L158.715 297.657L152.748 294.213V287.321L158.715 283.876L164.684 287.321Z" fill="white" stroke="black" stroke-width="5.6582"/>
<path d="M608.57 72.1323V148.799L542.173 187.133L475.777 148.799V72.1323L542.173 33.7983L608.57 72.1323Z" fill="white" stroke="black" stroke-width="10.1578"/>
<path d="M234.519 355.887V362.777L228.55 366.223L222.583 362.778V355.887L228.55 352.441L234.519 355.887Z" fill="white" stroke="black" stroke-width="5.6582"/>
<path d="M164.684 425.722V432.612L158.715 436.058L152.748 432.613V425.722L158.715 422.276L164.684 425.722Z" fill="white" stroke="black" stroke-width="5.6582"/>
<path d="M312.561 619.989V631.96L302.194 637.944L291.828 631.959V619.99L302.194 614.005L312.561 619.989Z" fill="white" stroke="black" stroke-width="5.6582"/>
<path d="M312.561 1037.73V1049.7L302.194 1055.68L291.828 1049.7V1037.73L302.194 1031.74L312.561 1037.73Z" fill="white" stroke="black" stroke-width="5.6582"/>
<path d="M312.561 744.422V756.393L302.194 762.377L291.828 756.392V744.423L302.194 738.438L312.561 744.422Z" fill="white" stroke="black" stroke-width="5.6582"/>
<path d="M312.561 1177.4V1189.37L302.194 1195.35L291.828 1189.37V1177.4L302.194 1171.41L312.561 1177.4Z" fill="white" stroke="black" stroke-width="5.6582"/>
<path d="M312.561 891.711V903.681L302.194 909.666L291.828 903.68V891.712L302.194 885.726L312.561 891.711Z" fill="white" stroke="black" stroke-width="5.6582"/>
<circle cx="590.423" cy="1485.58" r="50.789" fill="white" stroke="black" stroke-width="12.6973"/>
<circle cx="542.173" cy="110.466" r="50.789" fill="white" stroke="black" stroke-width="12.6973"/>
<circle cx="590.423" cy="1485.58" r="26.6643" fill="white" stroke="black" stroke-width="10.1578"/>
<circle cx="542.173" cy="110.466" r="26.6643" fill="white" stroke="black" stroke-width="10.1578"/>
<path d="M175.222 509.795L90.7854 568.203" stroke="black" stroke-width="20.3156"/>
<path d="M86.3413 1277.34L173.952 1335.75" stroke="black" stroke-width="20.3156"/>
<line x1="95.2294" y1="560.002" x2="91.4203" y2="1287.56" stroke="black" stroke-width="20.3156"/>
<circle cx="126.973" cy="747.869" r="118.085" fill="white" stroke="black" stroke-width="17.7762"/>
</svg>
