<svg width="31" height="31" viewBox="0 0 31 31" fill="none" xmlns="http://www.w3.org/2000/svg">
<path fill-rule="evenodd" clip-rule="evenodd" d="M17.6652 5.57518C17.113 3.30827 13.887 3.30827 13.3348 5.57518C13.2523 5.91582 13.0906 6.23219 12.8628 6.49853C12.635 6.76487 12.3475 6.97366 12.0238 7.10792C11.7 7.24217 11.3492 7.2981 10.9997 7.27114C10.6503 7.24418 10.3121 7.13509 10.0128 6.95277C8.01908 5.73794 5.7376 8.01938 6.95245 10.0131C7.73716 11.3006 7.0411 12.9804 5.5763 13.3364C3.3079 13.8872 3.3079 17.1146 5.5763 17.6639C5.91704 17.7465 6.23346 17.9083 6.49981 18.1363C6.76615 18.3643 6.97489 18.6519 7.10902 18.9758C7.24314 19.2998 7.29888 19.6508 7.27167 20.0003C7.24446 20.3498 7.13509 20.688 6.95245 20.9873C5.7376 22.981 8.01908 25.2624 10.0128 24.0476C10.3121 23.865 10.6503 23.7556 10.9998 23.7284C11.3493 23.7012 11.7004 23.7569 12.0243 23.891C12.3482 24.0252 12.6359 24.2339 12.8638 24.5002C13.0918 24.7666 13.2537 25.083 13.3362 25.4237C13.887 27.6921 17.1145 27.6921 17.6638 25.4237C17.7466 25.0832 17.9086 24.767 18.1366 24.5008C18.3647 24.2347 18.6523 24.0261 18.9761 23.892C19.2999 23.7579 19.6508 23.7021 20.0003 23.7291C20.3497 23.7562 20.6878 23.8653 20.9872 24.0476C22.9809 25.2624 25.2624 22.981 24.0475 20.9873C23.8652 20.6879 23.7561 20.3498 23.7291 20.0004C23.702 19.6509 23.7578 19.3001 23.8919 18.9762C24.026 18.6524 24.2346 18.3648 24.5008 18.1368C24.7669 17.9088 25.0831 17.7467 25.4237 17.6639C27.6921 17.1132 27.6921 13.8857 25.4237 13.3364C25.083 13.2539 24.7665 13.092 24.5002 12.8641C24.2339 12.6361 24.0251 12.3484 23.891 12.0245C23.7569 11.7006 23.7011 11.3496 23.7283 11.0001C23.7555 10.6505 23.8649 10.3124 24.0475 10.0131C25.2624 8.01938 22.9809 5.73794 20.9872 6.95277C20.6879 7.1354 20.3497 7.24477 20.0002 7.27198C19.6507 7.29918 19.2996 7.24346 18.9757 7.10933C18.6518 6.9752 18.3641 6.76647 18.1362 6.50013C17.9082 6.23379 17.7463 5.91737 17.6638 5.57664L17.6652 5.57518Z" stroke="black" stroke-width="2.06667"/>
<path d="M18.0833 15.5C18.0833 16.9267 16.9267 18.0833 15.5 18.0833C14.0733 18.0833 12.9167 16.9267 12.9167 15.5C12.9167 14.0733 14.0733 12.9167 15.5 12.9167C16.9267 12.9167 18.0833 14.0733 18.0833 15.5Z" stroke="black" stroke-width="2.06667"/>
</svg>
